{
.appVersion = "3108";
.formatVersion = 3;
date = "2022-04-22 07:41:25 +0000";
familyName = Noorani;
fontMaster = (
{
id = m01;
metricValues = (
{
over = 16;
pos = 800;
},
{
over = -16;
},
{
over = -16;
pos = -200;
},
{
over = 16;
pos = 900;
},
{
over = 10;
pos = 600;
},
{
over = -10;
pos = 525;
},
{
over = -16;
pos = -300;
}
);
name = Regular;
}
);
glyphs = (
{
glyphname = "aaMatra-gurmukhi";
lastChange = "2022-04-22 08:22:20 +0000";
layers = (
{
layerId = m01;
shapes = (
{
closed = 1;
nodes = (
(314,530,l),
(314,599,l),
(-10,599,l),
(-10,530,l),
(110,530,l),
(110,246,l),
(190,246,l),
(190,530,l)
);
}
);
width = 304;
}
);
unicode = 2622;
},
{
glyphname = "iMatra-gurmukhi";
lastChange = "2022-04-22 08:15:39 +0000";
layers = (
{
layerId = m01;
shapes = (
{
closed = 1;
nodes = (
(426,751,l),
(394,804,o),
(340,868,o),
(252,864,c),
(155,860,o),
(100,780,o),
(100,687,c),
(100,599,l),
(-9,599,l),
(-9,530,l),
(101,530,l),
(101,4,l),
(176,4,l),
(176,530,l),
(302,530,l),
(302,599,l),
(175,599,l),
(175,665,l),
(175,747,o),
(201,789,o),
(258,794,c),
(326,800,o),
(357,735,o),
(365,716,c)
);
}
);
width = 561;
}
);
unicode = 2623;
},
{
glyphname = "iiMatra-gurmukhi";
lastChange = "2022-04-22 08:02:37 +0000";
layers = (
{
layerId = m01;
shapes = (
{
closed = 1;
nodes = (
(302,530,l),
(302,599,l),
(175,599,l),
(175,657,l),
(175,750,o),
(116,837,o),
(12,843,c),
(-81,848,o),
(-117,797,o),
(-145,731,c),
(-86,689,l),
(-73,728,o),
(-44,782,o),
(12,775,c),
(74,767,o),
(100,717,o),
(100,635,c),
(100,599,l),
(-12,599,l),
(-12,530,l),
(100,530,l),
(100,4,l),
(175,4,l),
(175,530,l)
);
}
);
width = 286;
}
);
unicode = 2624;
},
{
glyphname = "a-gurmukhi";
lastChange = "2022-04-22 07:50:44 +0000";
layers = (
{
layerId = m01;
shapes = (
{
closed = 1;
nodes = (
(769,530,l),
(769,599,l),
(587,599,l),
(587,396,l),
(552,394,o),
(450,341,o),
(421,315,c),
(426,361,o),
(422,535,o),
(389,538,c),
(384,537,o),
(280,509,o),
(204,443,c),
(198,476,o),
(186,539,o),
(145,570,cs),
(111,596,o),
(79,599,o),
(35,599,cs),
(-14,599,l),
(-14,530,l),
(53,530,ls),
(120,530,o),
(138,457,o),
(138,396,c),
(126,370,o),
(44,341,o),
(44,274,cs),
(44,236,o),
(55,185,o),
(82,185,cs),
(151,185,o),
(194,305,o),
(189,359,c),
(223,382,o),
(299,445,o),
(347,445,cs),
(364,445,o),
(368,306,o),
(362,262,c),
(302,211,o),
(282,164,o),
(282,136,cs),
(282,93,o),
(293,63,o),
(324,63,cs),
(383,63,o),
(426,157,o),
(425,244,c),
(450,271,o),
(567,324,o),
(587,327,c),
(587,5,l),
(662,5,l),
(662,530,l)
);
}
);
width = 750;
}
);
unicode = 2565;
},
{
glyphname = "u-gurmukhi";
lastChange = "2022-04-22 08:29:26 +0000";
layers = (
{
layerId = m01;
shapes = (
{
closed = 1;
nodes = (
(713,530,l),
(713,599,l),
(632,599,l),
(627,715,o),
(530,891,o),
(366,891,c),
(120,891,o),
(72,676,o),
(58,599,c),
(-19,599,l),
(-19,530,l),
(57,530,l),
(58,505,o),
(57,509,o),
(60,459,c),
(68,304,o),
(172,-5,o),
(389,-5,c),
(490,-5,o),
(561,78,o),
(561,152,c),
(561,237,o),
(529,269,o),
(498,297,c),
(531,301,o),
(632,366,o),
(641,530,c)
);
},
{
closed = 1;
nodes = (
(533,-51,l),
(489,-65,o),
(377,-72,o),
(361,-72,c),
(348,-72,o),
(221,-65,o),
(175,-51,c),
(175,-112,l),
(228,-128,o),
(343,-128,o),
(359,-128,c),
(377,-128,o),
(475,-127,o),
(533,-113,c)
);
},
{
closed = 1;
nodes = (
(138,599,l),
(142,658,o),
(187,826,o),
(361,826,c),
(489,826,o),
(553,682,o),
(556,599,c)
);
},
{
closed = 1;
nodes = (
(563,530,l),
(573,442,o),
(492,337,o),
(431,337,c),
(160,337,l),
(133,397,o),
(133,530,o),
(133,530,c)
);
},
{
closed = 1;
nodes = (
(495,110,o),
(446,59,o),
(387,59,c),
(277,59,o),
(200,207,o),
(174,274,c),
(381,274,l),
(451,274,o),
(495,213,o),
(495,148,c)
);
}
);
width = 700;
}
);
unicode = 2569;
},
{
glyphname = "oo-gurmukhi";
lastChange = "2022-04-22 08:00:53 +0000";
layers = (
{
layerId = m01;
shapes = (
{
closed = 1;
nodes = (
(713,530,l),
(713,599,l),
(125,599,l),
(125,690,o),
(220,814,o),
(346,814,c),
(576,814,l),
(576,879,l),
(351,879,l),
(162,879,o),
(54,730,o),
(54,599,c),
(-18,599,l),
(-18,530,l),
(46,530,l),
(47,505,o),
(46,489,o),
(49,439,c),
(57,284,o),
(159,-9,o),
(366,5,c),
(461,11,o),
(538,84,o),
(538,152,c),
(538,237,o),
(496,271,o),
(461,303,c),
(501,297,o),
(607,366,o),
(616,530,c)
);
},
{
closed = 1;
nodes = (
(548,530,l),
(558,442,o),
(469,337,o),
(408,337,c),
(139,337,l),
(112,397,o),
(116,530,o),
(116,530,c)
);
},
{
closed = 1;
nodes = (
(480,118,o),
(439,64,o),
(374,59,c),
(262,51,o),
(185,207,o),
(159,274,c),
(366,274,l),
(436,274,o),
(480,213,o),
(480,148,c)
);
}
);
width = 696;
}
);
unicode = 2579;
},
{
glyphname = "ka-gurmukhi";
lastChange = "2022-04-22 07:54:46 +0000";
layers = (
{
layerId = m01;
shapes = (
{
closed = 1;
nodes = (
(663,530,l),
(663,599,l),
(-14,599,l),
(-14,530,l),
(473,530,l),
(477,504,o),
(457,391,o),
(427,310,c),
(412,336,o),
(339,432,o),
(229,432,c),
(129,432,o),
(44,366,o),
(44,236,c),
(44,136,o),
(142,64,o),
(242,64,c),
(320,64,o),
(402,133,o),
(420,175,c),
(420,175,o),
(435,127,o),
(444,95,c),
(452,65,o),
(457,26,o),
(458,5,c),
(532,4,l),
(531,46,o),
(515,164,o),
(473,236,c),
(538,355,o),
(550,501,o),
(546,530,c)
);
},
{
closed = 1;
nodes = (
(382,236,o),
(325,132,o),
(239,132,c),
(180,132,o),
(117,182,o),
(117,237,c),
(117,316,o),
(163,362,o),
(237,362,c),
(323,362,o),
(382,253,o),
(382,248,c)
);
}
);
width = 648;
}
);
unicode = 2581;
},
{
glyphname = "kha-gurmukhi";
lastChange = "2022-04-22 07:56:01 +0000";
layers = (
{
layerId = m01;
shapes = (
{
closed = 1;
nodes = (
(572,530,l),
(572,599,l),
(383,599,l),
(383,424,l),
(173,424,l),
(173,424,o),
(173,448,o),
(168,483,c),
(160,540,o),
(148,586,o),
(144,599,c),
(-13,599,l),
(-13,530,l),
(85,530,l),
(85,530,o),
(98,474,o),
(98,414,c),
(98,308,o),
(51,256,o),
(40,246,c),
(45,205,o),
(179,85,o),
(264,85,c),
(328,85,o),
(353,103,o),
(383,119,c),
(383,4,l),
(458,4,l),
(458,530,l)
);
},
{
closed = 1;
nodes = (
(383,202,l),
(349,178,o),
(326,157,o),
(260,157,c),
(222,157,o),
(131,219,o),
(131,251,c),
(131,251,o),
(161,302,o),
(171,361,c),
(383,361,l)
);
}
);
width = 556;
}
);
unicode = 2582;
},
{
glyphname = "ga-gurmukhi";
lastChange = "2022-04-22 07:56:28 +0000";
layers = (
{
layerId = m01;
shapes = (
{
closed = 1;
nodes = (
(747,530,l),
(747,599,l),
(-16,599,l),
(-16,530,l),
(348,530,l),
(348,382,l),
(178,382,l),
(109,382,o),
(44,353,o),
(44,265,c),
(44,123,o),
(168,6,o),
(279,6,c),
(373,6,o),
(423,60,o),
(423,135,c),
(423,530,l),
(565,530,l),
(565,5,l),
(640,5,l),
(640,530,l)
);
},
{
closed = 1;
nodes = (
(348,133,l),
(348,96,o),
(312,72,o),
(274,72,c),
(209,72,o),
(108,140,o),
(108,254,c),
(108,306,o),
(139,315,o),
(169,315,c),
(348,315,l)
);
}
);
width = 730;
}
);
unicode = 2583;
},
{
glyphname = "gha-gurmukhi";
lastChange = "2022-04-22 07:56:45 +0000";
layers = (
{
layerId = m01;
shapes = (
{
closed = 1;
nodes = (
(765,530,l),
(765,599,l),
(586,599,l),
(586,249,l),
(585,230,o),
(553,171,o),
(493,171,c),
(411,171,o),
(389,257,o),
(389,279,c),
(389,313,o),
(421,361,o),
(421,450,c),
(421,506,o),
(414,598,o),
(367,598,c),
(319,598,o),
(301,512,o),
(301,451,c),
(301,386,o),
(321,312,o),
(321,279,c),
(321,255,o),
(283,178,o),
(233,178,c),
(156,178,o),
(134,249,o),
(134,255,c),
(134,267,o),
(180,315,o),
(180,417,c),
(180,492,o),
(149,582,o),
(142,599,c),
(-11,599,l),
(-11,530,l),
(81,530,l),
(81,530,o),
(102,469,o),
(102,423,c),
(102,285,o),
(46,260,o),
(46,254,c),
(46,227,o),
(116,95,o),
(229,95,c),
(284,95,o),
(331,133,o),
(356,167,c),
(381,127,o),
(426,94,o),
(474,94,c),
(518,94,o),
(552,115,o),
(586,136,c),
(586,5,l),
(661,5,l),
(661,530,l)
);
}
);
width = 750;
}
);
unicode = 2584;
},
{
glyphname = "nga-gurmukhi";
lastChange = "2022-04-22 08:25:24 +0000";
layers = (
{
layerId = m01;
shapes = (
{
closed = 1;
nodes = (
(568,530,l),
(568,599,l),
(-15,599,l),
(-15,530,l),
(58,530,l),
(58,346,l),
(209,346,l),
(296,346,o),
(401,287,o),
(401,234,c),
(401,189,o),
(349,148,o),
(349,148,c),
(338,159,o),
(286,251,o),
(192,251,c),
(121,251,o),
(59,210,o),
(59,140,c),
(59,64,o),
(126,5,o),
(202,5,c),
(264,5,o),
(325,42,o),
(333,46,c),
(336,37,o),
(344,15,o),
(348,5,c),
(426,5,l),
(420,23,o),
(396,72,o),
(393,80,c),
(429,110,o),
(477,164,o),
(477,244,c),
(477,333,o),
(336,423,o),
(211,423,c),
(133,423,l),
(133,530,l)
);
},
{
closed = 1;
nodes = (
(292,108,o),
(233,71,o),
(207,71,c),
(179,71,o),
(127,82,o),
(127,135,c),
(127,158,o),
(151,178,o),
(194,178,c),
(263,178,o),
(292,108,o),
(292,108,c)
);
}
);
width = 550;
}
);
unicode = 2585;
},
{
glyphname = "ca-gurmukhi";
lastChange = "2022-04-22 08:13:55 +0000";
layers = (
{
layerId = m01;
shapes = (
{
closed = 1;
nodes = (
(663,530,l),
(663,599,l),
(-16,599,l),
(-16,530,l),
(486,530,l),
(486,355,l),
(212,355,l),
(212,432,l),
(194,434,o),
(119,439,o),
(82,399,c),
(54,368,o),
(50,305,o),
(50,287,c),
(130,287,l),
(130,273,o),
(132,262,o),
(142,234,c),
(184,108,o),
(297,4,o),
(408,4,c),
(498,4,o),
(561,57,o),
(561,135,c),
(561,530,l)
);
},
{
closed = 1;
nodes = (
(486,137,l),
(486,99,o),
(431,78,o),
(408,78,c),
(289,78,o),
(226,211,o),
(219,240,c),
(215,256,o),
(212,267,o),
(212,287,c),
(486,287,l)
);
}
);
width = 648;
}
);
unicode = 2586;
},
{
glyphname = "cha-gurmukhi";
lastChange = "2022-04-22 07:59:52 +0000";
layers = (
{
layerId = m01;
shapes = (
{
closed = 1;
nodes = (
(695,530,l),
(695,599,l),
(-17,599,l),
(-17,530,l),
(510,530,l),
(510,431,l),
(203,431,l),
(118,431,o),
(80,382,o),
(80,307,c),
(80,271,o),
(105,247,o),
(121,237,c),
(106,224,o),
(51,210,o),
(51,149,c),
(51,75,o),
(131,4,o),
(319,4,c),
(564,4,o),
(592,105,o),
(592,162,c),
(592,215,o),
(539,260,o),
(448,260,c),
(217,260,l),
(191,260,o),
(169,276,o),
(169,307,c),
(169,337,o),
(173,370,o),
(248,370,c),
(585,370,l),
(585,530,l)
);
},
{
closed = 1;
nodes = (
(516,116,o),
(460,74,o),
(361,74,c),
(361,193,l),
(468,193,o),
(516,178,o),
(516,148,c)
);
},
{
closed = 1;
nodes = (
(285,74,l),
(186,74,o),
(132,114,o),
(132,146,c),
(132,176,o),
(178,193,o),
(285,193,c)
);
}
);
width = 681;
}
);
unicode = 2587;
},
{
glyphname = "ja-gurmukhi";
lastChange = "2022-04-22 08:16:04 +0000";
layers = (
{
layerId = m01;
shapes = (
{
closed = 1;
nodes = (
(677,530,l),
(677,599,l),
(-17,599,l),
(-17,530,l),
(493,530,l),
(493,308,l),
(220,308,l),
(220,404,l),
(200,406,o),
(110,408,o),
(69,341,c),
(45,302,o),
(50,248,o),
(51,233,c),
(145,233,l),
(145,4,l),
(220,4,l),
(220,233,l),
(493,233,l),
(493,5,l),
(568,5,l),
(568,530,l)
);
}
);
width = 658;
}
);
unicode = 2588;
},
{
glyphname = "jha-gurmukhi";
lastChange = "2022-04-22 08:04:39 +0000";
layers = (
{
layerId = m01;
shapes = (
{
closed = 1;
nodes = (
(557,530,l),
(557,599,l),
(-18,599,l),
(-18,530,l),
(47,530,l),
(63,458,o),
(113,379,o),
(162,357,c),
(160,347,l),
(47,347,l),
(74,279,l),
(277,279,l),
(311,279,o),
(349,262,o),
(349,207,c),
(349,147,o),
(287,137,o),
(214,137,c),
(208,137,o),
(175,196,o),
(127,196,c),
(94,196,o),
(62,177,o),
(62,150,c),
(62,100,o),
(119,67,o),
(180,78,c),
(252,5,l),
(351,5,l),
(279,78,l),
(346,90,o),
(420,123,o),
(420,213,c),
(420,282,o),
(367,311,o),
(341,327,c),
(367,343,o),
(405,375,o),
(430,423,c),
(451,466,o),
(460,530,o),
(460,530,c)
);
},
{
closed = 1;
nodes = (
(388,530,l),
(390,486,o),
(334,375,o),
(273,375,c),
(217,375,o),
(127,455,o),
(126,530,c)
);
}
);
width = 544;
}
);
unicode = 2589;
},
{
glyphname = "nya-gurmukhi";
lastChange = "2022-04-22 08:26:32 +0000";
layers = (
{
layerId = m01;
shapes = (
{
closed = 1;
nodes = (
(567,530,l),
(567,599,l),
(-15,599,l),
(-15,530,l),
(88,530,l),
(138,429,l),
(72,414,o),
(43,350,o),
(43,303,c),
(43,209,o),
(128,179,o),
(163,179,c),
(228,57,o),
(308,4,o),
(365,4,c),
(387,4,o),
(394,7,o),
(404,11,c),
(404,81,l),
(384,72,o),
(375,64,o),
(356,64,c),
(306,64,o),
(253,157,o),
(250,179,c),
(423,179,l),
(423,247,l),
(204,247,l),
(133,247,o),
(122,265,o),
(122,303,c),
(122,333,o),
(135,354,o),
(193,354,c),
(464,354,l),
(464,530,l)
);
},
{
closed = 1;
nodes = (
(389,428,l),
(217,428,l),
(171,530,l),
(389,530,l)
);
}
);
width = 552;
}
);
unicode = 2590;
},
{
glyphname = "tta-gurmukhi";
lastChange = "2022-04-22 08:21:11 +0000";
layers = (
{
layerId = m01;
shapes = (
{
closed = 1;
nodes = (
(573,530,l),
(573,599,l),
(-18,599,l),
(-18,530,l),
(393,530,l),
(393,425,l),
(369,424,o),
(272,409,o),
(191,354,c),
(112,301,o),
(48,215,o),
(48,196,c),
(48,177,o),
(167,5,o),
(295,5,c),
(375,5,o),
(470,101,o),
(470,128,c),
(470,141,o),
(470,144,o),
(456,144,c),
(446,144,o),
(380,67,o),
(309,67,c),
(242,67,o),
(136,161,o),
(136,190,c),
(136,205,o),
(184,256,o),
(254,302,c),
(311,339,o),
(438,359,o),
(468,361,c),
(468,530,l)
);
}
);
width = 555;
}
);
unicode = 2591;
},
{
glyphname = "ttha-gurmukhi";
lastChange = "2022-04-22 08:09:04 +0000";
layers = (
{
layerId = m01;
shapes = (
{
closed = 1;
nodes = (
(662,530,l),
(662,599,l),
(-13,599,l),
(-13,530,l),
(283,530,l),
(283,417,l),
(201,416,o),
(66,344,o),
(66,199,c),
(66,62,o),
(188,5,o),
(327,5,c),
(482,5,o),
(578,80,o),
(578,198,c),
(578,336,o),
(458,413,o),
(360,417,c),
(360,530,l)
);
},
{
closed = 1;
nodes = (
(505,116,o),
(429,72,o),
(327,72,c),
(267,72,o),
(144,90,o),
(144,199,c),
(144,332,o),
(312,354,o),
(327,354,c),
(341,354,o),
(505,330,o),
(505,198,c)
);
}
);
width = 652;
}
);
unicode = 2592;
},
{
glyphname = "dda-gurmukhi";
lastChange = "2022-04-22 08:15:20 +0000";
layers = (
{
layerId = m01;
shapes = (
{
closed = 1;
nodes = (
(669,530,l),
(669,599,l),
(-16,599,l),
(-16,530,l),
(478,530,l),
(478,458,o),
(412,392,o),
(361,392,c),
(306,392,o),
(273,419,o),
(217,419,c),
(152,419,o),
(86,404,o),
(86,372,c),
(86,335,o),
(158,314,o),
(217,314,c),
(273,314,o),
(302,341,o),
(357,341,c),
(409,341,o),
(473,306,o),
(473,239,c),
(473,183,o),
(447,152,o),
(425,131,c),
(403,155,o),
(330,253,o),
(200,253,c),
(125,253,o),
(52,217,o),
(52,141,c),
(52,68,o),
(141,5,o),
(233,5,c),
(406,5,o),
(541,95,o),
(541,232,c),
(541,302,o),
(504,327,o),
(468,355,c),
(522,406,o),
(550,464,o),
(559,530,c)
);
},
{
closed = 1;
nodes = (
(372,96,o),
(326,69,o),
(234,69,c),
(170,69,o),
(120,110,o),
(120,138,c),
(120,163,o),
(143,187,o),
(224,187,c),
(328,187,o),
(372,96,o),
(372,96,c)
);
}
);
width = 654;
}
);
unicode = 2593;
},
{
glyphname = "ddha-gurmukhi";
lastChange = "2022-04-22 08:02:04 +0000";
layers = (
{
layerId = m01;
shapes = (
{
closed = 1;
nodes = (
(685,530,l),
(685,599,l),
(-16,599,l),
(-16,530,l),
(511,530,l),
(511,387,l),
(189,387,l),
(189,475,l),
(150,475,o),
(100,480,o),
(69,428,c),
(44,385,o),
(50,348,o),
(51,315,c),
(122,315,l),
(146,160,o),
(230,3,o),
(455,3,c),
(536,3,o),
(602,58,o),
(602,127,c),
(602,173,o),
(557,227,o),
(475,227,c),
(365,227,o),
(293,125,o),
(293,125,c),
(293,125,o),
(199,181,o),
(197,312,c),
(586,312,l),
(586,530,l)
);
},
{
closed = 1;
nodes = (
(535,93,o),
(493,69,o),
(463,69,c),
(376,69,o),
(352,96,o),
(352,96,c),
(352,96,o),
(412,166,o),
(484,166,c),
(505,166,o),
(535,149,o),
(535,124,c)
);
}
);
width = 674;
}
);
unicode = 2594;
},
{
glyphname = "nna-gurmukhi";
lastChange = "2022-04-22 08:22:45 +0000";
layers = (
{
layerId = m01;
shapes = (
{
closed = 1;
nodes = (
(738,530,l),
(738,599,l),
(-15,599,l),
(-15,530,l),
(291,530,l),
(353,462,o),
(388,440,o),
(419,425,c),
(400,412,o),
(376,340,o),
(376,340,c),
(376,340,o),
(328,376,o),
(286,376,c),
(148,376,o),
(44,244,o),
(44,216,c),
(44,134,o),
(244,5,o),
(373,5,c),
(495,5,o),
(632,99,o),
(632,120,c),
(632,130,o),
(627,141,o),
(613,141,c),
(601,141,o),
(521,63,o),
(395,65,c),
(310,66,o),
(133,146,o),
(133,214,c),
(133,227,o),
(191,295,o),
(279,296,c),
(382,297,o),
(396,224,o),
(427,224,c),
(452,224,o),
(453,261,o),
(453,265,c),
(455,289,o),
(452,367,o),
(480,381,c),
(513,358,o),
(567,333,o),
(584,325,c),
(606,392,l),
(535,422,o),
(432,481,o),
(397,530,c)
);
}
);
width = 721;
}
);
unicode = 2595;
},
{
glyphname = "ta-gurmukhi";
lastChange = "2022-04-22 08:20:16 +0000";
layers = (
{
layerId = m01;
shapes = (
{
closed = 1;
nodes = (
(692,530,l),
(692,599,l),
(-14,599,l),
(-14,530,l),
(493,530,l),
(504,521,o),
(507,479,o),
(507,445,c),
(507,389,o),
(432,320,o),
(388,320,c),
(356,320,o),
(302,349,o),
(263,349,c),
(186,349,o),
(129,336,o),
(129,296,c),
(129,261,o),
(189,241,o),
(261,241,c),
(304,241,o),
(347,255,o),
(388,255,c),
(449,255,o),
(504,232,o),
(504,180,c),
(504,121,o),
(444,68,o),
(331,68,c),
(167,68,o),
(92,192,o),
(72,192,c),
(57,192,o),
(57,186,o),
(57,174,c),
(57,154,o),
(158,4,o),
(332,4,c),
(468,4,o),
(582,70,o),
(582,176,c),
(582,264,o),
(517,265,o),
(479,291,c),
(528,310,o),
(593,367,o),
(585,530,c)
);
}
);
width = 675;
}
);
unicode = 2596;
},
{
glyphname = "tha-gurmukhi";
lastChange = "2022-04-22 08:07:57 +0000";
layers = (
{
layerId = m01;
shapes = (
{
closed = 1;
nodes = (
(591,530,l),
(591,599,l),
(-12,599,l),
(-12,530,l),
(102,530,l),
(102,530,o),
(115,474,o),
(115,414,c),
(115,307,o),
(55,255,o),
(43,246,c),
(48,193,o),
(190,79,o),
(281,79,c),
(344,79,o),
(380,105,o),
(410,128,c),
(410,4,l),
(485,4,l),
(485,530,l)
);
},
{
closed = 1;
nodes = (
(410,372,l),
(191,372,l),
(191,372,o),
(191,445,o),
(185,483,c),
(183,498,o),
(177,530,o),
(177,530,c),
(410,530,l)
);
},
{
closed = 1;
nodes = (
(410,211,l),
(378,185,o),
(343,151,o),
(277,151,c),
(239,151,o),
(134,210,o),
(134,253,c),
(134,253,o),
(161,261,o),
(174,309,c),
(410,309,l)
);
}
);
width = 574;
}
);
unicode = 2597;
},
{
glyphname = "da-gurmukhi";
lastChange = "2022-04-22 08:14:37 +0000";
layers = (
{
layerId = m01;
shapes = (
{
closed = 1;
nodes = (
(665,530,l),
(665,599,l),
(-18,599,l),
(-18,530,l),
(488,530,l),
(488,329,l),
(199,329,l),
(199,414,l),
(179,417,o),
(94,428,o),
(61,369,c),
(27,305,o),
(52,269,o),
(57,263,c),
(116,264,l),
(116,113,o),
(230,3,o),
(367,3,c),
(412,3,o),
(563,50,o),
(563,95,c),
(563,110,o),
(566,113,o),
(554,113,c),
(538,113,o),
(506,73,o),
(386,61,c),
(275,50,o),
(200,147,o),
(198,264,c),
(563,264,l),
(563,530,l)
);
}
);
width = 652;
}
);
unicode = 2598;
},
{
glyphname = "dha-gurmukhi";
lastChange = "2022-04-22 08:00:31 +0000";
layers = (
{
layerId = m01;
shapes = (
{
closed = 1;
nodes = (
(593,530,l),
(593,599,l),
(-16,599,l),
(-16,530,l),
(102,530,l),
(102,530,o),
(115,474,o),
(115,414,c),
(115,308,o),
(68,256,o),
(57,246,c),
(62,208,o),
(197,85,o),
(281,85,c),
(344,85,o),
(380,105,o),
(410,128,c),
(410,4,l),
(485,4,l),
(485,530,l)
);
},
{
closed = 1;
nodes = (
(412,211,l),
(380,185,o),
(343,157,o),
(277,157,c),
(250,157,o),
(148,219,o),
(148,251,c),
(148,251,o),
(189,315,o),
(189,390,c),
(189,439,o),
(177,530,o),
(177,530,c),
(412,530,l)
);
}
);
width = 576;
}
);
unicode = 2599;
},
{
glyphname = "na-gurmukhi";
lastChange = "2022-04-22 08:19:01 +0000";
layers = (
{
layerId = m01;
shapes = (
{
closed = 1;
nodes = (
(639,530,l),
(639,599,l),
(-15,599,l),
(-15,530,l),
(274,530,l),
(274,383,l),
(198,378,o),
(60,296,o),
(60,168,c),
(60,55,o),
(157,7,o),
(222,4,c),
(222,69,l),
(200,70,o),
(132,80,o),
(132,166,c),
(132,308,o),
(295,326,o),
(310,326,c),
(324,326,o),
(492,310,o),
(492,169,c),
(492,83,o),
(427,70,o),
(402,69,c),
(402,53,o),
(402,3,o),
(402,4,c),
(509,15,o),
(564,85,o),
(564,166,c),
(564,293,o),
(432,379,o),
(350,383,c),
(350,530,l)
);
}
);
width = 628;
}
);
unicode = 2600;
},
{
glyphname = "pa-gurmukhi";
lastChange = "2022-04-22 08:19:57 +0000";
layers = (
{
layerId = m01;
shapes = (
{
closed = 1;
nodes = (
(589,530,l),
(589,599,l),
(410,599,l),
(410,211,l),
(378,185,o),
(343,157,o),
(277,157,c),
(239,157,o),
(146,214,o),
(146,246,c),
(146,246,o),
(199,329,o),
(199,384,c),
(199,485,o),
(168,579,o),
(163,599,c),
(-15,599,l),
(-15,530,l),
(102,530,l),
(102,530,o),
(125,470,o),
(125,410,c),
(125,304,o),
(68,256,o),
(57,246,c),
(62,205,o),
(196,85,o),
(281,85,c),
(344,85,o),
(380,105,o),
(410,128,c),
(410,4,l),
(485,4,l),
(485,530,l)
);
}
);
width = 576;
}
);
unicode = 2602;
},
{
glyphname = "pha-gurmukhi";
lastChange = "2022-04-22 08:07:37 +0000";
layers = (
{
layerId = m01;
shapes = (
{
closed = 1;
nodes = (
(568,530,l),
(568,599,l),
(-14,599,l),
(-14,530,l),
(380,530,l),
(380,433,l),
(187,433,l),
(68,433,o),
(44,361,o),
(44,316,c),
(44,170,o),
(184,4,o),
(312,4,c),
(396,4,o),
(466,65,o),
(466,140,c),
(466,210,o),
(398,274,o),
(310,274,c),
(253,274,o),
(172,212,o),
(163,198,c),
(150,207,o),
(120,263,o),
(120,292,c),
(120,318,o),
(124,358,o),
(179,358,c),
(455,358,l),
(455,530,l)
);
},
{
closed = 1;
nodes = (
(394,93,o),
(344,74,o),
(311,74,c),
(253,74,o),
(198,142,o),
(198,142,c),
(198,142,o),
(264,202,o),
(317,202,c),
(354,202,o),
(394,185,o),
(394,135,c)
);
}
);
width = 555;
}
);
unicode = 2603;
},
{
glyphname = "ba-gurmukhi";
lastChange = "2022-04-22 08:13:34 +0000";
layers = (
{
layerId = m01;
shapes = (
{
closed = 1;
nodes = (
(580,530,l),
(580,599,l),
(-11,599,l),
(-11,530,l),
(60,530,l),
(81,452,o),
(123,368,o),
(190,329,c),
(157,323,o),
(61,248,o),
(45,218,c),
(65,195,o),
(155,77,o),
(265,77,c),
(306,77,o),
(350,81,o),
(401,104,c),
(401,5,l),
(476,5,l),
(476,530,l)
);
},
{
closed = 1;
nodes = (
(401,369,l),
(259,369,l),
(241,369,o),
(207,398,o),
(186,425,c),
(162,457,o),
(149,500,o),
(143,530,c),
(401,530,l)
);
},
{
closed = 1;
nodes = (
(401,176,l),
(401,176,o),
(352,136,o),
(281,136,c),
(218,136,o),
(135,211,o),
(135,211,c),
(135,211,o),
(200,294,o),
(284,294,c),
(401,294,l)
);
}
);
width = 564;
}
);
unicode = 2604;
},
{
glyphname = "bha-gurmukhi";
lastChange = "2022-04-22 07:59:24 +0000";
layers = (
{
layerId = m01;
shapes = (
{
closed = 1;
nodes = (
(617,530,l),
(617,599,l),
(-14,599,l),
(-14,530,l),
(426,530,l),
(435,515,o),
(434,466,o),
(434,443,c),
(434,388,o),
(401,346,o),
(401,346,c),
(401,346,o),
(339,409,o),
(243,409,c),
(120,409,o),
(75,345,o),
(75,293,c),
(75,244,o),
(122,169,o),
(235,169,c),
(325,169,o),
(392,224,o),
(392,224,c),
(392,224,o),
(400,200,o),
(400,174,c),
(400,97,o),
(345,59,o),
(271,59,c),
(186,59,o),
(98,117,o),
(75,117,c),
(61,117,o),
(56,106,o),
(56,98,c),
(56,79,o),
(188,0,o),
(272,0,c),
(394,0,o),
(484,65,o),
(484,170,c),
(484,208,o),
(475,249,o),
(449,290,c),
(464,304,o),
(524,376,o),
(508,530,c)
);
},
{
closed = 1;
nodes = (
(370,275,o),
(309,230,o),
(239,230,c),
(210,230,o),
(151,242,o),
(150,282,c),
(149,324,o),
(187,346,o),
(234,346,c),
(311,346,o),
(370,275,o),
(370,275,c)
);
}
);
width = 604;
}
);
unicode = 2605;
},
{
glyphname = "ma-gurmukhi";
lastChange = "2022-04-22 08:18:40 +0000";
layers = (
{
layerId = m01;
shapes = (
{
closed = 1;
nodes = (
(583,530,l),
(583,599,l),
(403,599,l),
(403,331,l),
(183,331,l),
(182,357,o),
(171,395,o),
(156,443,c),
(136,505,o),
(102,583,o),
(95,599,c),
(-17,599,l),
(-17,530,l),
(45,530,l),
(45,530,o),
(110,407,o),
(110,314,c),
(110,213,o),
(48,169,o),
(48,106,c),
(48,52,o),
(74,41,o),
(105,41,c),
(170,41,o),
(185,233,o),
(185,262,c),
(403,262,l),
(403,5,l),
(478,5,l),
(478,530,l)
);
}
);
width = 566;
}
);
unicode = 2606;
},
{
glyphname = "ya-gurmukhi";
lastChange = "2022-04-22 08:11:30 +0000";
layers = (
{
layerId = m01;
shapes = (
{
closed = 1;
nodes = (
(707,530,l),
(707,599,l),
(-11,599,l),
(-11,530,l),
(98,530,l),
(109,493,o),
(112,449,o),
(112,414,c),
(112,297,o),
(44,292,o),
(44,282,c),
(44,249,o),
(162,84,o),
(296,84,c),
(348,84,o),
(388,126,o),
(395,134,c),
(395,275,l),
(531,275,l),
(531,5,l),
(606,5,l),
(606,530,l)
);
},
{
closed = 1;
nodes = (
(531,350,l),
(320,350,l),
(320,174,l),
(320,174,o),
(296,163,o),
(271,163,c),
(229,163,o),
(148,228,o),
(142,267,c),
(165,297,o),
(187,333,o),
(187,417,c),
(187,453,o),
(184,484,o),
(173,530,c),
(531,530,l)
);
}
);
width = 694;
}
);
unicode = 2607;
},
{
glyphname = "ra-gurmukhi";
lastChange = "2022-04-22 08:20:39 +0000";
layers = (
{
layerId = m01;
shapes = (
{
closed = 1;
nodes = (
(513,530,l),
(513,599,l),
(-18,599,l),
(-18,530,l),
(335,530,l),
(335,386,l),
(178,386,l),
(108,386,o),
(44,354,o),
(44,265,c),
(44,123,o),
(162,4,o),
(273,4,c),
(363,4,o),
(409,62,o),
(409,135,c),
(409,530,l)
);
},
{
closed = 1;
nodes = (
(336,133,l),
(336,100,o),
(296,76,o),
(273,76,c),
(210,76,o),
(122,142,o),
(122,254,c),
(122,305,o),
(160,316,o),
(201,316,c),
(336,316,l)
);
}
);
width = 498;
}
);
unicode = 2608;
},
{
glyphname = "la-gurmukhi";
lastChange = "2022-04-22 08:16:59 +0000";
layers = (
{
layerId = m01;
shapes = (
{
closed = 1;
nodes = (
(704,530,l),
(704,599,l),
(-15,599,l),
(-15,530,l),
(152,530,l),
(154,493,o),
(177,404,o),
(204,371,c),
(147,352,o),
(53,311,o),
(53,191,c),
(53,55,o),
(213,5,o),
(253,5,c),
(254,5,l),
(254,74,l),
(252,74,l),
(248,74,o),
(125,84,o),
(125,185,c),
(125,238,o),
(170,300,o),
(216,300,c),
(296,300,o),
(289,202,o),
(322,202,c),
(348,202,o),
(396,306,o),
(434,306,c),
(493,306,o),
(543,253,o),
(543,194,c),
(543,77,o),
(415,73,o),
(406,73,c),
(406,73,l),
(406,4,l),
(406,4,l),
(472,4,o),
(615,65,o),
(615,199,c),
(615,307,o),
(536,346,o),
(465,370,c),
(487,409,o),
(500,462,o),
(515,530,c)
);
},
{
closed = 1;
nodes = (
(434,530,l),
(435,458,o),
(374,338,o),
(322,338,c),
(274,338,o),
(237,483,o),
(234,530,c)
);
}
);
width = 688;
}
);
unicode = 2610;
},
{
glyphname = "lla-gurmukhi";
lastChange = "2022-04-22 08:17:26 +0000";
layers = (
{
layerId = m01;
shapes = (
{
closed = 1;
nodes = (
(704,530,l),
(704,599,l),
(-15,599,l),
(-15,530,l),
(152,530,l),
(154,493,o),
(177,404,o),
(204,371,c),
(147,352,o),
(53,311,o),
(53,191,c),
(53,55,o),
(213,5,o),
(253,5,c),
(254,5,l),
(254,74,l),
(252,74,l),
(248,74,o),
(125,84,o),
(125,185,c),
(125,238,o),
(170,300,o),
(216,300,c),
(296,300,o),
(289,202,o),
(322,202,c),
(348,202,o),
(396,306,o),
(434,306,c),
(493,306,o),
(543,253,o),
(543,194,c),
(543,77,o),
(415,73,o),
(406,73,c),
(406,73,l),
(406,4,l),
(406,4,l),
(472,4,o),
(615,65,o),
(615,199,c),
(615,307,o),
(536,346,o),
(465,370,c),
(487,409,o),
(500,462,o),
(515,530,c)
);
},
{
closed = 1;
nodes = (
(434,530,l),
(435,458,o),
(374,338,o),
(322,338,c),
(274,338,o),
(237,483,o),
(234,530,c)
);
},
{
closed = 1;
nodes = (
(141,-36,l),
(76,28,l),
(13,-35,l),
(77,-98,l)
);
}
);
width = 688;
}
);
unicode = 2611;
},
{
glyphname = "va-gurmukhi";
lastChange = "2022-04-22 08:22:01 +0000";
layers = (
{
layerId = m01;
shapes = (
{
closed = 1;
nodes = (
(680,530,l),
(680,599,l),
(-14,599,l),
(-14,530,l),
(506,530,l),
(506,427,l),
(247,427,l),
(119,427,o),
(52,385,o),
(52,295,c),
(52,201,o),
(167,176,o),
(208,180,c),
(281,66,o),
(365,5,o),
(460,5,c),
(485,5,o),
(520,8,o),
(532,9,c),
(559,85,l),
(539,77,o),
(502,71,o),
(475,71,c),
(401,71,o),
(327,128,o),
(303,182,c),
(569,182,l),
(569,257,l),
(225,257,l),
(173,257,o),
(137,254,o),
(137,293,c),
(137,334,o),
(166,352,o),
(226,352,c),
(581,352,l),
(581,530,l)
);
}
);
width = 670;
}
);
unicode = 2613;
},
{
glyphname = "sha-gurmukhi";
lastChange = "2022-04-22 08:08:44 +0000";
layers = (
{
layerId = m01;
shapes = (
{
closed = 1;
nodes = (
(575,530,l),
(575,599,l),
(-9,599,l),
(-9,530,l),
(41,530,l),
(41,530,o),
(110,399,o),
(110,314,c),
(110,213,o),
(48,169,o),
(48,106,c),
(48,52,o),
(74,41,o),
(105,41,c),
(170,41,o),
(185,233,o),
(185,262,c),
(403,262,l),
(403,5,l),
(478,5,l),
(478,530,l)
);
},
{
closed = 1;
nodes = (
(326,100,o),
(303,123,o),
(276,123,c),
(249,123,o),
(226,100,o),
(226,73,c),
(226,46,o),
(249,23,o),
(276,23,c),
(303,23,o),
(326,46,o),
(326,73,c)
);
},
{
closed = 1;
nodes = (
(403,331,l),
(183,331,l),
(182,356,o),
(171,383,o),
(156,431,c),
(142,475,o),
(125,530,o),
(125,530,c),
(403,530,l)
);
}
);
width = 564;
}
);
unicode = 2614;
},
{
glyphname = "sa-gurmukhi";
lastChange = "2022-04-22 07:53:20 +0000";
layers = (
{
layerId = m01;
shapes = (
{
closed = 1;
nodes = (
(586,530,l),
(586,599,l),
(-17,599,l),
(-17,530,l),
(49,530,l),
(49,530,o),
(118,399,o),
(118,314,c),
(118,213,o),
(44,169,o),
(44,106,c),
(44,52,o),
(70,41,o),
(101,41,c),
(166,41,o),
(193,233,o),
(193,262,c),
(403,262,l),
(403,5,l),
(478,5,l),
(478,530,l)
);
},
{
closed = 1;
nodes = (
(403,331,l),
(191,331,l),
(190,356,o),
(179,383,o),
(164,431,c),
(150,475,o),
(133,530,o),
(133,530,c),
(403,530,l)
);
}
);
width = 567;
}
);
unicode = 2616;
},
{
glyphname = "ha-gurmukhi";
lastChange = "2022-04-22 07:54:06 +0000";
layers = (
{
layerId = m01;
shapes = (
{
closed = 1;
nodes = (
(565,530,l),
(565,599,l),
(-15,599,l),
(-15,530,l),
(382,530,l),
(382,134,l),
(382,102,o),
(352,73,o),
(327,73,c),
(211,73,o),
(128,172,o),
(128,251,c),
(128,273,o),
(136,282,o),
(172,282,c),
(217,282,l),
(217,354,l),
(124,354,l),
(77,354,o),
(44,336,o),
(44,291,c),
(44,166,o),
(158,1,o),
(329,1,c),
(411,1,o),
(457,61,o),
(457,132,c),
(457,530,l)
);
}
);
width = 550;
}
);
unicode = 2617;
},
{
glyphname = "khha-gurmukhi";
lastChange = "2022-04-22 08:25:06 +0000";
layers = (
{
layerId = m01;
shapes = (
{
closed = 1;
nodes = (
(567,530,l),
(567,599,l),
(390,599,l),
(390,424,l),
(180,424,l),
(180,424,o),
(180,448,o),
(175,483,c),
(167,540,o),
(155,586,o),
(151,599,c),
(-11,599,l),
(-11,530,l),
(92,530,l),
(92,530,o),
(105,474,o),
(105,414,c),
(105,308,o),
(58,256,o),
(47,246,c),
(52,205,o),
(186,85,o),
(271,85,c),
(335,85,o),
(360,103,o),
(390,119,c),
(390,4,l),
(465,4,l),
(465,530,l)
);
},
{
closed = 1;
nodes = (
(134,79,o),
(111,102,o),
(84,102,c),
(57,102,o),
(34,79,o),
(34,52,c),
(34,25,o),
(57,2,o),
(84,2,c),
(111,2,o),
(134,25,o),
(134,52,c)
);
},
{
closed = 1;
nodes = (
(390,202,l),
(356,178,o),
(333,157,o),
(267,157,c),
(229,157,o),
(138,219,o),
(138,251,c),
(138,251,o),
(168,302,o),
(178,361,c),
(390,361,l)
);
}
);
width = 552;
}
);
unicode = 2649;
},
{
glyphname = "ghha-gurmukhi";
lastChange = "2022-04-22 08:12:26 +0000";
layers = (
{
layerId = m01;
shapes = (
{
closed = 1;
nodes = (
(832,530,l),
(832,599,l),
(-9,599,l),
(-9,530,l),
(429,530,l),
(429,382,l),
(259,382,l),
(190,382,o),
(125,353,o),
(125,265,c),
(125,123,o),
(249,6,o),
(360,6,c),
(454,6,o),
(504,60,o),
(504,135,c),
(504,530,l),
(646,530,l),
(646,5,l),
(721,5,l),
(721,530,l)
);
},
{
closed = 1;
nodes = (
(133,109,o),
(110,132,o),
(83,132,c),
(56,132,o),
(33,109,o),
(33,82,c),
(33,55,o),
(56,32,o),
(83,32,c),
(110,32,o),
(133,55,o),
(133,82,c)
);
},
{
closed = 1;
nodes = (
(429,133,l),
(429,96,o),
(393,72,o),
(355,72,c),
(290,72,o),
(189,140,o),
(189,254,c),
(189,306,o),
(220,315,o),
(250,315,c),
(429,315,l)
);
}
);
width = 826;
}
);
unicode = 2650;
},
{
glyphname = "za-gurmukhi";
lastChange = "2022-04-22 08:23:23 +0000";
layers = (
{
layerId = m01;
shapes = (
{
closed = 1;
nodes = (
(673,530,l),
(673,599,l),
(-15,599,l),
(-15,530,l),
(493,530,l),
(493,308,l),
(220,308,l),
(220,404,l),
(200,406,o),
(110,408,o),
(69,341,c),
(45,302,o),
(50,248,o),
(51,233,c),
(145,233,l),
(145,4,l),
(220,4,l),
(220,233,l),
(493,233,l),
(493,5,l),
(568,5,l),
(568,530,l)
);
},
{
closed = 1;
nodes = (
(405,76,o),
(380,99,o),
(353,99,c),
(326,99,o),
(303,76,o),
(303,49,c),
(303,22,o),
(326,-1,o),
(353,-1,c),
(380,-1,o),
(405,22,o),
(405,49,c)
);
}
);
width = 660;
}
);
unicode = 2651;
},
{
glyphname = "rra-gurmukhi";
lastChange = "2022-04-22 08:10:15 +0000";
layers = (
{
layerId = m01;
shapes = (
{
closed = 1;
nodes = (
(667,530,l),
(667,599,l),
(-12,599,l),
(-12,530,l),
(473,530,l),
(491,515,o),
(498,498,o),
(498,470,c),
(498,440,o),
(440,394,o),
(385,391,c),
(347,389,o),
(258,412,o),
(224,412,c),
(104,412,o),
(72,384,o),
(72,354,c),
(72,318,o),
(122,300,o),
(229,300,c),
(276,300,o),
(339,323,o),
(386,323,c),
(437,323,o),
(516,315,o),
(516,244,c),
(516,173,o),
(403,155,o),
(316,155,c),
(169,155,o),
(80,205,o),
(51,205,c),
(38,205,o),
(44,181,o),
(44,163,c),
(44,153,o),
(62,93,o),
(100,45,c),
(127,11,o),
(170,-17,o),
(187,-2,c),
(216,24,o),
(135,69,o),
(135,107,c),
(214,93,o),
(336,75,o),
(390,86,c),
(414,62,o),
(422,37,o),
(435,22,c),
(453,1,o),
(479,-21,o),
(493,-6,c),
(506,6,o),
(502,28,o),
(492,37,c),
(478,50,o),
(459,86,o),
(466,109,c),
(494,96,o),
(586,154,o),
(588,235,c),
(590,323,o),
(513,326,o),
(492,350,c),
(515,368,o),
(590,436,o),
(568,530,c)
);
}
);
width = 654;
}
);
unicode = 2652;
},
{
glyphname = "fa-gurmukhi";
lastChange = "2022-04-22 08:24:29 +0000";
layers = (
{
layerId = m01;
shapes = (
{
closed = 1;
nodes = (
(622,530,l),
(622,599,l),
(-18,599,l),
(-18,530,l),
(431,530,l),
(431,433,l),
(238,433,l),
(119,433,o),
(95,361,o),
(95,316,c),
(95,170,o),
(235,4,o),
(363,4,c),
(447,4,o),
(517,65,o),
(517,140,c),
(517,210,o),
(449,274,o),
(361,274,c),
(304,274,o),
(223,212,o),
(214,198,c),
(201,207,o),
(171,263,o),
(171,292,c),
(171,318,o),
(175,358,o),
(230,358,c),
(506,358,l),
(506,530,l)
);
},
{
closed = 1;
nodes = (
(117,84,o),
(94,107,o),
(67,107,c),
(40,107,o),
(17,84,o),
(17,57,c),
(17,30,o),
(40,7,o),
(67,7,c),
(94,7,o),
(117,30,o),
(117,57,c)
);
},
{
closed = 1;
nodes = (
(445,93,o),
(395,74,o),
(362,74,c),
(304,74,o),
(249,142,o),
(249,142,c),
(249,142,o),
(315,202,o),
(368,202,c),
(405,202,o),
(445,185,o),
(445,135,c)
);
}
);
width = 604;
}
);
unicode = 2654;
},
{
glyphname = "iri-gurmukhi";
lastChange = "2022-04-22 07:52:33 +0000";
layers = (
{
layerId = m01;
shapes = (
{
closed = 1;
nodes = (
(570,530,l),
(570,599,l),
(-12,599,l),
(-12,530,l),
(46,530,l),
(48,519,o),
(56,461,o),
(87,410,c),
(119,359,o),
(163,331,o),
(181,320,c),
(147,307,o),
(44,222,o),
(44,190,c),
(44,168,o),
(166,8,o),
(294,8,c),
(369,8,o),
(484,97,o),
(484,118,c),
(484,127,o),
(484,134,o),
(463,134,c),
(453,134,o),
(398,70,o),
(316,70,c),
(236,70,o),
(148,153,o),
(148,190,c),
(148,217,o),
(233,283,o),
(263,283,c),
(468,283,l),
(468,530,l)
);
},
{
closed = 1;
nodes = (
(273,358,l),
(222,358,o),
(171,396,o),
(151,425,c),
(115,479,o),
(115,530,o),
(115,530,c),
(393,530,l),
(393,530,o),
(393,393,o),
(393,358,c)
);
}
);
width = 555;
}
);
unicode = 2674;
},
{
glyphname = "ura-gurmukhi";
lastChange = "2022-04-22 07:51:41 +0000";
layers = (
{
layerId = m01;
shapes = (
{
closed = 1;
nodes = (
(713,530,l),
(713,599,l),
(617,599,l),
(612,715,o),
(515,891,o),
(351,891,c),
(105,891,o),
(57,676,o),
(43,599,c),
(-20,599,l),
(-20,530,l),
(42,530,l),
(43,505,o),
(42,509,o),
(45,459,c),
(53,304,o),
(157,-5,o),
(374,-5,c),
(475,-5,o),
(546,78,o),
(546,152,c),
(546,237,o),
(514,269,o),
(483,297,c),
(516,301,o),
(617,366,o),
(626,530,c)
);
},
{
closed = 1;
nodes = (
(123,599,l),
(127,658,o),
(172,826,o),
(346,826,c),
(474,826,o),
(538,682,o),
(541,599,c)
);
},
{
closed = 1;
nodes = (
(548,530,l),
(558,442,o),
(477,337,o),
(416,337,c),
(145,337,l),
(118,397,o),
(118,530,o),
(118,530,c)
);
},
{
closed = 1;
nodes = (
(480,110,o),
(431,59,o),
(372,59,c),
(262,59,o),
(185,207,o),
(159,274,c),
(366,274,l),
(436,274,o),
(480,213,o),
(480,148,c)
);
}
);
width = 700;
}
);
unicode = 2675;
},
{
glyphname = "zero-gurmukhi";
lastChange = "2022-04-22 07:57:37 +0000";
layers = (
{
layerId = m01;
shapes = (
{
closed = 1;
nodes = (
(511,434,o),
(407,536,o),
(281,536,c),
(155,536,o),
(53,432,o),
(53,306,c),
(53,180,o),
(157,78,o),
(283,78,c),
(409,78,o),
(511,182,o),
(511,308,c)
);
},
{
closed = 1;
nodes = (
(430,226,o),
(365,159,o),
(283,159,c),
(201,159,o),
(134,224,o),
(134,306,c),
(134,388,o),
(199,455,o),
(281,455,c),
(363,455,o),
(430,390,o),
(430,308,c)
);
}
);
width = 560;
}
);
unicode = 2662;
},
{
glyphname = "one-gurmukhi";
lastChange = "2022-04-22 07:58:16 +0000";
layers = (
{
layerId = m01;
shapes = (
{
closed = 1;
nodes = (
(540,34,o),
(496,48,o),
(479,69,c),
(460,92,o),
(457,126,o),
(457,156,c),
(457,307,o),
(494,352,o),
(494,468,c),
(494,568,o),
(398,648,o),
(259,648,c),
(172,648,o),
(76,581,o),
(76,493,c),
(76,388,o),
(178,328,o),
(275,328,c),
(318,328,o),
(371,341,o),
(398,364,c),
(385,299,o),
(375,239,o),
(375,156,c),
(375,78,o),
(439,-9,o),
(502,-9,c),
(522,-9,o),
(540,-4,o),
(540,19,c)
);
},
{
closed = 1;
nodes = (
(408,426,o),
(339,410,o),
(267,410,c),
(218,410,o),
(159,441,o),
(159,491,c),
(159,534,o),
(216,560,o),
(262,560,c),
(320,560,o),
(408,538,o),
(408,484,c)
);
}
);
width = 600;
}
);
unicode = 2663;
},
{
glyphname = "two-gurmukhi";
lastChange = "2022-04-22 07:57:51 +0000";
layers = (
{
layerId = m01;
shapes = (
{
closed = 1;
nodes = (
(540,547,o),
(407,633,o),
(287,633,c),
(206,633,o),
(68,580,o),
(68,540,c),
(68,506,o),
(77,498,o),
(106,498,c),
(156,498,o),
(198,549,o),
(300,549,c),
(379,549,o),
(453,475,o),
(453,403,c),
(453,324,o),
(340,257,o),
(279,257,c),
(279,257,o),
(222,291,o),
(168,291,c),
(108,291,o),
(76,275,o),
(76,236,c),
(76,196,o),
(128,176,o),
(190,176,c),
(235,176,o),
(257,184,o),
(293,184,c),
(319,184,o),
(355,142,o),
(392,88,c),
(423,45,o),
(466,-15,o),
(466,-15,c),
(469,-15,o),
(525,8,o),
(525,11,c),
(525,69,o),
(402,185,o),
(363,206,c),
(394,214,o),
(540,273,o),
(540,405,c)
);
}
);
width = 600;
}
);
unicode = 2664;
},
{
glyphname = "three-gurmukhi";
lastChange = "2022-04-22 07:58:05 +0000";
layers = (
{
layerId = m01;
shapes = (
{
closed = 1;
nodes = (
(534,568,o),
(398,633,o),
(271,633,c),
(197,633,o),
(80,629,o),
(80,582,c),
(80,554,o),
(103,539,o),
(128,539,c),
(184,539,o),
(209,554,o),
(274,554,c),
(337,554,o),
(449,528,o),
(449,471,c),
(449,404,o),
(348,416,o),
(293,416,c),
(232,416,o),
(208,429,o),
(164,429,c),
(126,429,o),
(77,423,o),
(77,384,c),
(77,353,o),
(122,341,o),
(161,341,c),
(210,341,o),
(243,351,o),
(292,351,c),
(363,351,o),
(444,315,o),
(444,248,c),
(444,180,o),
(355,152,o),
(290,152,c),
(228,152,o),
(160,197,o),
(119,197,c),
(92,197,o),
(55,180,o),
(55,141,c),
(55,93,o),
(128,72,o),
(240,80,c),
(316,18,o),
(392,-16,o),
(444,-16,c),
(475,-16,o),
(524,-20,o),
(524,12,c),
(524,26,o),
(516,37,o),
(502,37,c),
(487,37,o),
(477,34,o),
(447,34,c),
(382,34,o),
(354,84,o),
(352,90,c),
(444,90,o),
(520,174,o),
(520,234,c),
(520,297,o),
(478,341,o),
(455,362,c),
(485,379,o),
(534,407,o),
(534,474,c)
);
}
);
width = 600;
}
);
unicode = 2665;
},
{
glyphname = "four-gurmukhi";
lastChange = "2022-04-22 07:58:36 +0000";
layers = (
{
layerId = m01;
shapes = (
{
closed = 1;
nodes = (
(532,514,o),
(480,617,o),
(349,617,c),
(349,603,o),
(349,563,o),
(349,547,c),
(413,547,o),
(466,522,o),
(466,448,c),
(466,379,o),
(376,342,o),
(303,342,c),
(218,342,o),
(146,379,o),
(146,450,c),
(146,514,o),
(185,547,o),
(251,547,c),
(251,571,o),
(251,596,o),
(251,618,c),
(123,618,o),
(71,518,o),
(71,462,c),
(71,386,o),
(109,330,o),
(174,301,c),
(133,288,o),
(71,253,o),
(71,168,c),
(71,48,o),
(181,-4,o),
(297,-4,c),
(388,-4,o),
(526,23,o),
(526,161,c),
(526,239,o),
(458,295,o),
(432,310,c),
(461,325,o),
(532,346,o),
(532,449,c)
);
},
{
closed = 1;
nodes = (
(453,85,o),
(366,66,o),
(301,66,c),
(222,66,o),
(148,88,o),
(148,161,c),
(148,236,o),
(223,270,o),
(300,270,c),
(388,270,o),
(453,242,o),
(453,160,c)
);
}
);
width = 600;
}
);
unicode = 2666;
},
{
glyphname = "five-gurmukhi";
lastChange = "2022-04-22 08:00:08 +0000";
layers = (
{
layerId = m01;
shapes = (
{
closed = 1;
nodes = (
(515,-1,l),
(515,623,l),
(433,623,l),
(433,259,l),
(433,259,o),
(377,222,o),
(317,222,c),
(221,222,o),
(148,297,o),
(148,297,c),
(148,297,o),
(180,360,o),
(180,434,c),
(180,550,o),
(118,625,o),
(118,625,c),
(60,580,l),
(60,580,o),
(103,490,o),
(103,434,c),
(103,348,o),
(53,291,o),
(53,291,c),
(53,291,o),
(188,139,o),
(310,139,c),
(362,139,o),
(389,149,o),
(433,175,c),
(433,-1,l)
);
}
);
width = 600;
}
);
unicode = 2667;
},
{
glyphname = "six-gurmukhi";
lastChange = "2022-04-22 08:01:40 +0000";
layers = (
{
layerId = m01;
shapes = (
{
closed = 1;
nodes = (
(526,276,o),
(481,288,o),
(442,288,c),
(392,288,o),
(360,278,o),
(311,278,c),
(240,278,o),
(167,314,o),
(167,381,c),
(167,445,o),
(248,473,o),
(313,473,c),
(381,473,o),
(419,426,o),
(475,426,c),
(498,426,o),
(523,439,o),
(523,467,c),
(523,488,o),
(481,531,o),
(376,549,c),
(371,566,o),
(357,559,o),
(357,593,c),
(357,674,o),
(501,680,o),
(501,703,c),
(450,754,l),
(421,754,o),
(370,729,o),
(350,718,c),
(337,711,o),
(280,662,o),
(280,605,c),
(280,571,o),
(287,543,o),
(288,539,c),
(165,539,o),
(83,455,o),
(83,395,c),
(83,332,o),
(125,288,o),
(148,267,c),
(117,250,o),
(69,222,o),
(69,155,c),
(69,61,o),
(204,-4,o),
(332,-4,c),
(406,-4,o),
(523,0,o),
(523,47,c),
(523,75,o),
(499,90,o),
(474,90,c),
(419,90,o),
(393,75,o),
(328,75,c),
(265,75,o),
(154,101,o),
(154,157,c),
(154,225,o),
(255,213,o),
(309,213,c),
(370,213,o),
(394,199,o),
(439,199,c),
(476,199,o),
(526,206,o),
(526,245,c)
);
}
);
width = 600;
}
);
unicode = 2668;
},
{
glyphname = "seven-gurmukhi";
lastChange = "2022-04-22 08:01:07 +0000";
layers = (
{
layerId = m01;
shapes = (
{
closed = 1;
nodes = (
(546,521,o),
(472,620,o),
(353,620,c),
(224,620,o),
(167,527,o),
(167,379,c),
(256,379,l),
(257,433,o),
(258,529,o),
(351,529,c),
(424,529,o),
(462,493,o),
(462,390,c),
(462,295,o),
(407,224,o),
(366,180,c),
(313,123,o),
(241,84,o),
(164,84,c),
(108,84,o),
(59,89,o),
(59,89,c),
(59,67,o),
(59,21,o),
(59,10,c),
(59,10,o),
(114,3,o),
(166,3,c),
(263,3,o),
(344,37,o),
(421,115,c),
(482,176,o),
(546,268,o),
(546,403,c)
);
}
);
width = 600;
}
);
unicode = 2669;
},
{
glyphname = "eight-gurmukhi";
lastChange = "2022-04-22 08:01:19 +0000";
layers = (
{
layerId = m01;
shapes = (
{
closed = 1;
nodes = (
(549,431,l),
(549,522,l),
(241,522,l),
(241,601,l),
(241,621,o),
(212,629,o),
(185,629,c),
(139,629,o),
(98,608,o),
(80,575,c),
(64,546,o),
(57,536,o),
(57,486,c),
(57,469,o),
(57,452,o),
(57,434,c),
(150,434,l),
(150,342,o),
(150,239,o),
(150,239,c),
(150,157,o),
(199,84,o),
(256,41,c),
(317,-4,o),
(384,-17,o),
(442,-17,c),
(442,-17,o),
(512,-17,o),
(546,-17,c),
(546,62,l),
(502,62,o),
(436,63,o),
(436,63,c),
(389,63,o),
(241,102,o),
(241,264,c),
(241,264,o),
(241,362,o),
(241,431,c)
);
}
);
width = 600;
}
);
unicode = 2670;
},
{
glyphname = "nine-gurmukhi";
lastChange = "2022-04-22 08:01:29 +0000";
layers = (
{
layerId = m01;
shapes = (
{
closed = 1;
nodes = (
(549,431,l),
(549,522,l),
(241,522,l),
(241,601,l),
(241,621,o),
(212,629,o),
(185,629,c),
(139,629,o),
(98,608,o),
(80,575,c),
(64,546,o),
(57,536,o),
(57,486,c),
(57,469,o),
(57,452,o),
(57,434,c),
(150,434,l),
(150,342,o),
(150,239,o),
(150,239,c),
(150,157,o),
(199,84,o),
(256,41,c),
(317,-4,o),
(384,-17,o),
(442,-17,c),
(442,-17,o),
(512,-17,o),
(546,-17,c),
(546,62,l),
(502,62,o),
(436,63,o),
(436,63,c),
(389,63,o),
(241,102,o),
(241,264,c),
(241,264,o),
(241,362,o),
(241,431,c)
);
}
);
width = 600;
}
);
unicode = 2671;
},
{
glyphname = "bindi-gurmukhi";
lastChange = "2022-04-22 08:05:39 +0000";
layers = (
{
layerId = m01;
shapes = (
{
closed = 1;
nodes = (
(109,749,o),
(86,772,o),
(59,772,c),
(32,772,o),
(9,749,o),
(9,722,c),
(9,695,o),
(32,672,o),
(59,672,c),
(86,672,o),
(109,695,o),
(109,722,c)
);
},
{
closed = 1;
nodes = (
(131,530,l),
(131,599,l),
(-12,599,l),
(-12,530,l)
);
}
);
width = 118;
}
);
unicode = 2562;
},
{
glyphname = "visarga-gurmukhi";
lastChange = "2022-04-22 08:30:48 +0000";
layers = (
{
layerId = m01;
shapes = (
{
closed = 1;
nodes = (
(224,491,o),
(178,534,o),
(123,534,c),
(68,534,o),
(22,488,o),
(22,433,c),
(22,378,o),
(69,332,o),
(124,332,c),
(181,332,o),
(224,379,o),
(224,434,c)
);
},
{
closed = 1;
nodes = (
(226,224,o),
(180,267,o),
(125,267,c),
(70,267,o),
(24,221,o),
(24,166,c),
(24,111,o),
(71,65,o),
(126,65,c),
(183,65,o),
(226,112,o),
(226,167,c)
);
},
{
closed = 1;
nodes = (
(182,402,o),
(157,375,o),
(124,375,c),
(92,375,o),
(65,401,o),
(65,433,c),
(65,465,o),
(91,492,o),
(123,492,c),
(155,492,o),
(182,467,o),
(182,434,c)
);
},
{
closed = 1;
nodes = (
(184,135,o),
(159,108,o),
(126,108,c),
(94,108,o),
(67,134,o),
(67,166,c),
(67,198,o),
(93,225,o),
(125,225,c),
(157,225,o),
(184,200,o),
(184,167,c)
);
}
);
width = 261;
}
);
unicode = 2563;
},
{
glyphname = "rakar-gurmukhi";
lastChange = "2022-04-22 08:08:22 +0000";
layers = (
{
layerId = m01;
shapes = (
{
closed = 1;
nodes = (
(70,-266,o),
(47,-188,o),
(-16,-138,c),
(-46,-114,o),
(-64,-106,o),
(-98,-96,c),
(-98,-48,l),
(-162,-48,l),
(-162,-87,l),
(-162,-87,o),
(-212,-93,o),
(-212,-141,c),
(-212,-175,o),
(-183,-201,o),
(-151,-201,c),
(-107,-201,o),
(-93,-159,o),
(-93,-159,c),
(-93,-159,o),
(-57,-160,o),
(-32,-176,c),
(25,-212,o),
(49,-266,o),
(58,-266,c)
);
}
);
width = 10;
}
);
},
{
glyphname = "uMatra-gurmukhi";
lastChange = "2022-04-22 08:21:33 +0000";
layers = (
{
layerId = m01;
shapes = (
{
closed = 1;
nodes = (
(-124,-71,l),
(-168,-85,o),
(-280,-92,o),
(-296,-92,c),
(-309,-92,o),
(-436,-85,o),
(-482,-71,c),
(-482,-132,l),
(-429,-148,o),
(-314,-148,o),
(-298,-148,c),
(-280,-148,o),
(-182,-147,o),
(-124,-133,c)
);
}
);
width = 10;
}
);
unicode = 2625;
},
{
glyphname = "uuMatra-gurmukhi";
lastChange = "2022-04-22 08:09:34 +0000";
layers = (
{
layerId = m01;
shapes = (
{
closed = 1;
nodes = (
(-146,-77,l),
(-190,-91,o),
(-302,-98,o),
(-318,-98,c),
(-331,-98,o),
(-458,-91,o),
(-504,-77,c),
(-504,-138,l),
(-450,-154,o),
(-334,-161,o),
(-318,-161,c),
(-300,-161,o),
(-204,-153,o),
(-146,-139,c)
);
},
{
closed = 1;
nodes = (
(-144,-208,l),
(-188,-222,o),
(-300,-229,o),
(-316,-229,c),
(-329,-229,o),
(-456,-222,o),
(-502,-208,c),
(-502,-269,l),
(-449,-285,o),
(-334,-289,o),
(-318,-289,c),
(-300,-289,o),
(-202,-284,o),
(-144,-270,c)
);
}
);
width = 10;
}
);
unicode = 2626;
},
{
glyphname = "eeMatra-gurmukhi";
lastChange = "2022-04-22 08:23:05 +0000";
layers = (
{
layerId = m01;
shapes = (
{
closed = 1;
nodes = (
(-105,657,l),
(-105,657,o),
(-128,733,o),
(-183,783,c),
(-237,832,o),
(-318,869,o),
(-371,869,c),
(-409,869,o),
(-451,858,o),
(-451,819,c),
(-451,783,o),
(-402,773,o),
(-367,773,c),
(-344,773,o),
(-275,792,o),
(-201,739,c),
(-160,709,o),
(-136,657,o),
(-136,657,c)
);
}
);
width = 10;
}
);
unicode = 2631;
},
{
glyphname = "aiMatra-gurmukhi";
lastChange = "2022-04-22 08:11:58 +0000";
layers = (
{
layerId = m01;
shapes = (
{
closed = 1;
nodes = (
(-87,650,l),
(-87,650,o),
(-129,788,o),
(-184,838,c),
(-238,887,o),
(-279,928,o),
(-368,936,c),
(-406,939,o),
(-461,932,o),
(-461,894,c),
(-461,855,o),
(-403,855,o),
(-368,853,c),
(-306,849,o),
(-265,846,o),
(-215,805,c),
(-183,779,o),
(-159,729,o),
(-149,717,c),
(-155,720,o),
(-163,714,o),
(-169,717,c),
(-223,743,o),
(-250,776,o),
(-356,781,c),
(-394,783,o),
(-481,767,o),
(-465,717,c),
(-457,692,o),
(-428,692,o),
(-413,692,c),
(-343,692,o),
(-357,717,o),
(-295,717,c),
(-229,717,o),
(-135,654,o),
(-131,650,c)
);
}
);
width = 10;
}
);
unicode = 2632;
},
{
glyphname = "ooMatra-gurmukhi";
lastChange = "2022-04-22 08:19:23 +0000";
layers = (
{
layerId = m01;
shapes = (
{
closed = 1;
nodes = (
(-97,741,o),
(-119,799,o),
(-205,799,c),
(-258,799,o),
(-327,781,o),
(-392,781,c),
(-431,781,o),
(-448,789,o),
(-448,809,c),
(-448,824,o),
(-448,841,o),
(-466,841,c),
(-484,841,o),
(-493,825,o),
(-493,804,c),
(-493,779,o),
(-480,723,o),
(-392,723,c),
(-339,723,o),
(-241,742,o),
(-188,742,c),
(-153,742,o),
(-140,727,o),
(-140,719,c),
(-140,706,o),
(-141,669,o),
(-116,669,c),
(-96,669,o),
(-97,699,o),
(-97,714,c)
);
}
);
width = 10;
}
);
unicode = 2635;
},
{
glyphname = "auMatra-gurmukhi";
lastChange = "2022-04-22 08:06:24 +0000";
layers = (
{
layerId = m01;
shapes = (
{
closed = 1;
nodes = (
(-71,805,o),
(-109,870,o),
(-183,870,c),
(-246,870,o),
(-250,845,o),
(-338,835,c),
(-397,828,o),
(-439,845,o),
(-439,870,c),
(-439,882,o),
(-445,894,o),
(-458,892,c),
(-480,889,o),
(-475,872,o),
(-475,862,c),
(-475,853,o),
(-461,819,o),
(-439,805,c),
(-402,782,o),
(-373,784,o),
(-338,784,c),
(-307,784,o),
(-299,787,o),
(-287,788,c),
(-293,780,o),
(-296,760,o),
(-296,756,c),
(-296,714,o),
(-268,669,o),
(-229,669,c),
(-206,669,o),
(-241,706,o),
(-241,732,c),
(-241,766,o),
(-224,798,o),
(-184,798,c),
(-146,798,o),
(-127,767,o),
(-127,744,c),
(-127,714,o),
(-149,688,o),
(-149,676,c),
(-149,672,o),
(-149,667,o),
(-137,667,c),
(-107,667,o),
(-71,711,o),
(-71,755,c)
);
}
);
width = 10;
}
);
unicode = 2636;
},
{
glyphname = "tippi-gurmukhi";
lastChange = "2022-04-22 08:05:10 +0000";
layers = (
{
layerId = m01;
shapes = (
{
closed = 1;
nodes = (
(48,810,o),
(-6,854,o),
(-62,854,c),
(-133,854,o),
(-177,814,o),
(-177,754,c),
(-177,712,o),
(-146,667,o),
(-110,667,c),
(-95,667,o),
(-123,704,o),
(-123,730,c),
(-123,759,o),
(-105,781,o),
(-62,781,c),
(-36,781,o),
(-8,761,o),
(-8,733,c),
(-8,701,o),
(-36,663,o),
(-15,667,c),
(34,676,o),
(48,711,o),
(48,754,c)
);
}
);
width = 10;
}
);
unicode = 2672;
},
{
glyphname = "addak-gurmukhi";
lastChange = "2022-04-22 08:32:36 +0000";
layers = (
{
layerId = m01;
shapes = (
{
closed = 1;
nodes = (
(167,841,o),
(163,786,o),
(145,766,c),
(116,732,o),
(89,729,o),
(68,729,c),
(34,729,o),
(5,732,o),
(-16,768,c),
(-26,786,o),
(-41,841,o),
(-53,841,c),
(-82,841,o),
(-66,767,o),
(-51,737,c),
(-28,693,o),
(20,667,o),
(68,667,c),
(139,667,o),
(169,707,o),
(181,727,c),
(199,757,o),
(216,841,o),
(185,841,c)
);
},
{
closed = 1;
nodes = (
(165,530,l),
(165,599,l),
(-11,599,l),
(-11,530,l)
);
}
);
width = 254;
}
);
unicode = 2673;
},
{
glyphname = "ha-gurmukhi.below";
lastChange = "2022-04-22 08:03:25 +0000";
layers = (
{
layerId = m01;
shapes = (
{
closed = 1;
nodes = (
(-119,12,l),
(-186,12,l),
(-186,-40,o),
(-186,-127,o),
(-186,-127,c),
(-186,-183,o),
(-197,-181,o),
(-229,-181,c),
(-252,-181,o),
(-283,-155,o),
(-283,-143,c),
(-283,-128,o),
(-287,-100,o),
(-258,-100,c),
(-258,-41,l),
(-306,-41,o),
(-348,-53,o),
(-348,-119,c),
(-348,-200,o),
(-269,-246,o),
(-205,-246,c),
(-152,-246,o),
(-119,-214,o),
(-119,-144,c)
);
}
);
width = 10;
}
);
},
{
glyphname = "va-gurmukhi.below";
lastChange = "2022-04-22 08:03:50 +0000";
layers = (
{
layerId = m01;
shapes = (
{
closed = 1;
nodes = (
(-103,-40,o),
(-120,-29,o),
(-136,-25,c),
(-136,-25,o),
(-128,-45,o),
(-149,-45,c),
(-330,-45,l),
(-364,-45,o),
(-390,-70,o),
(-390,-93,c),
(-390,-121,l),
(-390,-137,o),
(-375,-179,o),
(-310,-180,c),
(-316,-196,o),
(-290,-258,o),
(-211,-258,c),
(-105,-258,l),
(-105,-211,l),
(-233,-211,l),
(-251,-211,o),
(-259,-205,o),
(-259,-191,c),
(-259,-178,o),
(-259,-175,o),
(-259,-175,c),
(-132,-175,l),
(-132,-175,o),
(-105,-172,o),
(-105,-153,c),
(-105,-128,l),
(-105,-128,o),
(-296,-128,o),
(-329,-128,c),
(-349,-128,o),
(-349,-92,o),
(-329,-92,c),
(-146,-92,l),
(-127,-92,o),
(-103,-86,o),
(-103,-59,c)
);
}
